<svg version="1.1" xmlns="http://www.w3.org/2000/svg" xmlns:xlink="http://www.w3.org/1999/xlink" x="0px" y="0px" viewBox="0 0 65.6 54.4" xml:space="preserve" style="stroke: #fff">
<g id="Layer_1">
	<line fill="none" stroke-width="10" stroke-linecap="round" stroke-miterlimit="10" x1="-958.9" y1="-96.7" x2="-1077.4" y2="21.8"/>
	<polyline fill="none" stroke-width="10" stroke-linecap="round" stroke-miterlimit="10" points="-1033.7,23.5 -1078.7,23.5 -1078.6,-21.4"/>
	<line fill="none" stroke-width="10" stroke-linecap="round" stroke-miterlimit="10" x1="-1134.2" y1="-34.3" x2="-1015.7" y2="-152.8"/>
	<polyline fill="none" stroke-width="10" stroke-linecap="round" stroke-miterlimit="10" points="-1059.4,-154.5 -1014.4,-154.5 -1014.4,-109.5 		"/>
</g>

<g id="Layer_2">
	<path fill="none" stroke-width="10" stroke-linecap="round" stroke-miterlimit="10" d="M-499.4-99.7 c0,12.3-10,22.2-22.2,22.2c-12.3,0-22.2-9.9-22.2-22.2c0-12.3,10-22.2,22.2-22.2C-509.3-122-499.4-112-499.4-99.7z"/>
	<path fill="none" stroke-width="10" stroke-linecap="round" stroke-miterlimit="10" d="M-505.8-13.7h-51.5 c-3,0-5.9-1.4-7.7-3.8c-1.8-2.4-2.4-5.5-1.7-8.4c5.5-20.3,24-34.5,45-34.5c11.3,0,22,4.1,30.2,11.1"/>
	<path fill="none" stroke-width="10" stroke-linecap="round" stroke-miterlimit="10" d="M-394.1-105.6 c0,16.5-13.4,29.8-29.8,29.8c-16.5,0-29.8-13.3-29.8-29.8c0-16.5,13.4-29.8,29.8-29.8C-407.5-135.5-394.1-122.1-394.1-105.6z"/>
	<path fill="none" stroke-width="10" stroke-linecap="round" stroke-miterlimit="10" d="M-471.9,4.5 c-4,0-7.9-1.9-10.3-5.1c-2.5-3.2-3.3-7.4-2.2-11.3c7.4-27.2,32.2-46.2,60.4-46.2c28.2,0,53.1,19,60.4,46.2 c1.1,3.9,0.2,8.1-2.2,11.3c-2.5,3.2-6.3,5.1-10.3,5.1H-471.9z"/>
</g>

<g id="Layer_3">
	<path fill="none" stroke-width="10" stroke-linecap="round" stroke-miterlimit="10" d="M-210.3-85.5"/>
	<path fill="none" stroke-width="10" stroke-linecap="round" stroke-miterlimit="10" d="M-154-112.3 c0,28.1-22.8,50.9-50.9,50.9c-28.1,0-50.9-22.8-50.9-50.9c0-28.1,22.8-50.9,50.9-50.9C-176.8-163.2-154-140.4-154-112.3z"/>
	<polyline fill="none" stroke-width="10" stroke-linecap="round" stroke-miterlimit="10" points="-209.9,-136.1  -209.9,-107.3 -180.8,-107.3"/>
	<line fill="none" stroke-width="10" stroke-linecap="round" stroke-miterlimit="10" x1="-90.2" y1="-88" x2="-208.6" y2="30.5"/>
	<polyline fill="none" stroke-width="10" stroke-linecap="round" stroke-miterlimit="10" points="-164.9,32.2 -209.9,32.2 -209.9,-12.7"/>
</g>

<g>
	<line fill="none" stroke-width="4" stroke-linecap="round" stroke-miterlimit="10" x1="8.7" y1="-180.8" x2="43.6" y2="-145.9"/>
	<line fill="none" stroke-width="4" stroke-linecap="round" stroke-miterlimit="10" x1="43.6" y1="-180.8" x2="8.7" y2="-145.9"/>
</g>

<g>
	<path fill-rule="evenodd" clip-rule="evenodd" fill="#3C3C3C" d="M104.5-176.3v4h38v-4H104.5z M104.5-161.3h38v-4h-38V-161.3z M104.5-150.3h38v-4h-38V-150.3z"/>
</g>

	<path fill-rule="evenodd" clip-rule="evenodd" fill="#3C3C3C" d="M36.8-67.7l-2.2-0.1c-0.2-0.7-0.5-1.3-0.8-1.9l1.5-1.6 c0.4-0.4,0.4-1.1,0-1.5l-1.6-1.6c-0.4-0.4-1.1-0.4-1.6,0l-1.6,1.5c-0.6-0.3-1.2-0.6-1.9-0.8l-0.1-2.2c0-0.6-0.5-1.1-1.1-1.1H25 c-0.6,0-1.1,0.5-1.1,1.1l-0.1,2.2c-0.7,0.2-1.3,0.5-1.9,0.8l-1.6-1.5c-0.4-0.4-1.1-0.4-1.6,0L17-72.9c-0.4,0.4-0.4,1.1,0,1.5 l1.5,1.6c-0.3,0.6-0.6,1.2-0.8,1.9l-2.2,0.1c-0.6,0-1.1,0.5-1.1,1.1v2.3c0,0.6,0.5,1.1,1.1,1.1l2.2,0.1c0.2,0.7,0.5,1.3,0.8,1.9 L17-59.6c-0.4,0.4-0.4,1.1,0,1.5l1.6,1.6c0.4,0.4,1.1,0.4,1.6,0l1.6-1.5c0.6,0.3,1.2,0.6,1.9,0.8l0.1,2.2c0,0.6,0.5,1.1,1.1,1.1 h2.3c0.6,0,1.1-0.5,1.1-1.1l0.1-2.2c0.7-0.2,1.3-0.5,1.9-0.8l1.6,1.5c0.4,0.4,1.1,0.4,1.6,0l1.6-1.6c0.4-0.4,0.4-1.1,0-1.5 l-1.5-1.6c0.3-0.6,0.6-1.2,0.8-1.9l2.2-0.1c0.6,0,1.1-0.5,1.1-1.1v-2.3C37.9-67.2,37.4-67.7,36.8-67.7z M26.1-61.3 c-2.4,0-4.3-1.9-4.3-4.2c0-2.3,1.9-4.2,4.3-4.2s4.3,1.9,4.3,4.2C30.4-63.2,28.5-61.3,26.1-61.3z"/>
	<path fill="#3C3C3C" d="M131.3-66h-1.1v-3.8c0-1.9-0.7-3.6-1.9-4.8c-1.2-1.3-2.9-2.1-4.7-2.1c-1.9,0-3.5,0.8-4.7,2.1 c-1.2,1.3-1.9,3-1.9,4.8v3.8h-1.1c-0.5,0-0.9,0.4-0.9,0.8v9.9c0,0.5,0.4,0.8,0.9,0.8h15.6c0.5,0,0.9-0.4,0.9-0.8v-9.9 C132.1-65.6,131.7-66,131.3-66z M120-69.7c0-1.1,0.4-2,1.1-2.7c0.6-0.7,1.5-1.1,2.4-1.1c0.9,0,1.8,0.4,2.4,1.1 c0.6,0.7,1.1,1.6,1.1,2.7v3.8h-7V-69.7z"/>

<g>
	<polyline fill="none" stroke-width="6" stroke-linecap="round" stroke-miterlimit="10" points="30.3,48.1  9.4,27.2 30.3,6.3"/>
	<line fill="none" stroke-width="6" stroke-linecap="round" stroke-miterlimit="10" x1="9.4" y1="27.2" x2="56.2" y2="27.2"/>
</g>

<g id="Layer_4">
	<polyline fill="none" stroke-width="10" stroke-linecap="round" stroke-miterlimit="10" points="-853.5,-110.1  -853.5,-143.8 -819.8,-143.8 		"/>
	<polyline fill="none" stroke-width="10" stroke-linecap="round" stroke-miterlimit="10" points="-666.3,-110.1  -666.3,-143.8 -700,-143.8 		"/>
	<polyline fill="none" stroke-width="10" stroke-linecap="round" stroke-miterlimit="10" points="-853.5,-19.9  -853.5,12.8 -819.8,12.8 		"/>
	<polyline fill="none" stroke-width="10" stroke-linecap="round" stroke-miterlimit="10" points="-666.3,-20.9  -666.3,12.8 -700,12.8 		"/>
	<rect x="-819.4" y="-105" fill="none" stroke-width="10" stroke-linecap="round" stroke-miterlimit="10" width="119" height="79.1"/>
</g>
</svg>
